<mxfile host="app.diagrams.net" modified="2024-07-26T11:39:39.220Z" agent="Mozilla/5.0 (Windows NT 10.0; Win64; x64) AppleWebKit/537.36 (KHTML, like Gecko) Chrome/126.0.0.0 Safari/537.36" version="24.2.2" etag="jI_uCI55E3dgsycUW1jA" type="github">
  <diagram name="Page-1" id="c38PKqrXgLJAsNfNpM5n">
    <mxGraphModel>
      <root>
        <mxCell id="0" />
        <mxCell id="1" parent="0" />
      </root>
    </mxGraphModel>
  </diagram>
</mxfile>
